<svg width="842" height="595" viewBox="0 0 842 595" fill="none" xmlns="http://www.w3.org/2000/svg">
<rect width="842" height="595" fill="white"/>
<ellipse cx="157.5" cy="155" rx="67.5" ry="65" fill="#0E0D0D"/>
<path d="M108.962 129.221C109.226 129.047 109.581 129.105 109.92 129.243C110.685 129.555 111.212 130.242 111.687 130.919L114.751 135.279L120.087 142.676L123.386 147.372C123.662 147.765 124.183 147.898 124.613 147.685C125.157 147.416 125.325 146.72 124.962 146.233L118.987 138.202L112.815 129.772C112.336 129.118 111.875 128.415 111.792 127.61C111.747 127.182 111.797 126.755 112.104 126.553C112.383 126.369 112.764 126.444 113.12 126.599C113.839 126.913 114.345 127.553 114.804 128.19L115.892 129.697L119.006 133.733L127.365 144.698C127.682 145.114 128.289 145.166 128.673 144.811C129.001 144.507 129.051 144.006 128.789 143.643L125.691 139.347L120.798 132.846L116.196 127.137C115.418 126.172 114.264 124.641 115.245 123.884C115.337 123.814 115.447 123.772 115.567 123.753C116.564 123.591 117.355 124.526 117.979 125.32L119.925 127.703L122.817 131.29L124.374 133.308L131.116 141.751C131.436 142.151 132.032 142.186 132.396 141.825C132.66 141.564 132.727 141.164 132.562 140.831L132.394 140.492L127.945 134.887L121.718 126.816L119.754 124.271C118.996 123.289 117.852 121.752 118.835 120.994C119.817 120.238 121.021 121.712 121.807 122.674L121.814 122.683L136.196 140.285C136.196 140.285 138.867 143.424 140.645 145.89C141.444 146.998 142.947 149.946 143.306 151.264C143.434 151.735 143.524 152.474 143.587 153.255C143.766 155.484 143.365 157.711 142.649 159.829L142.372 160.646L153.936 176.113C153.936 176.113 168.492 192.135 176.406 203.47C176.691 203.879 177.032 204.373 177.35 204.836C178.05 205.858 178.574 207.023 178.385 208.247C178.294 208.836 178.171 209.288 178.171 209.288C178.171 209.288 177.441 210.977 176.595 211.739C175.725 212.523 175.034 212.752 173.906 213.069C171.153 213.843 168.584 211.647 167.102 209.201L157.22 192.887L138.561 163.088L136.214 162.977C134.36 162.888 132.511 162.576 130.824 161.802C129.933 161.394 128.986 160.895 128.286 160.364C126.363 158.904 124.281 155.654 124.281 155.654L121.394 150.95L113.397 138.179L109.492 132.272C109.133 131.729 108.798 131.158 108.684 130.518C108.596 130.02 108.598 129.462 108.962 129.221Z" fill="white"/>
<g filter="url(#filter0_f)">
<path d="M125.5 153.46C125.5 153.46 128.072 157.142 130.5 158.457C132.623 159.607 136.5 159.956 136.5 159.956" stroke="black" stroke-width="0.5"/>
</g>
<path d="M205.008 119.05C205.008 119.05 203.647 118.142 201.917 118.382C199.556 118.71 197.122 119.609 194.987 121.249C192.853 122.89 190.684 124.751 188.25 127.715C184.077 132.794 183.974 133.095 181.098 136.839C176.909 142.291 173.865 146.076 169.949 151.728C167.959 154.601 165.544 158.429 163.703 161.411C161.91 164.315 161.782 167.936 163.312 170.987L164.585 173.525L154.042 189.353L147.321 198.732L142.813 205.499C142.308 206.257 141.95 207.103 141.757 207.993C141.52 209.092 141.796 210.246 142.573 211.058C143.127 211.638 143.78 212.268 144.312 212.632C145.452 213.411 146.432 213.742 147.579 213.984C148.284 214.134 149.34 213.45 150.108 212.843C150.783 212.311 151.305 211.619 151.743 210.88L155.925 203.825L161.355 193.682L202.714 122.919L205.008 119.05Z" fill="white"/>
<g filter="url(#filter1_f)">
<path d="M164 163.953L175.586 147.318L192 124.978" stroke="black" stroke-width="0.5"/>
</g>
<path d="M135.232 117.204C134.608 117.204 134.296 116.936 134.296 116.4C134.296 116.224 134.32 116.024 134.368 115.8C134.424 115.568 134.5 115.272 134.596 114.912C134.708 114.536 134.792 114.216 134.848 113.952C134.904 113.688 134.932 113.452 134.932 113.244C134.932 112.7 134.692 112.428 134.212 112.428C134.076 112.428 133.944 112.444 133.816 112.476L132.856 117H131.128L132.868 108.84C132.332 109.064 131.916 109.4 131.62 109.848C131.332 110.296 131.188 110.836 131.188 111.468C131.188 111.764 131.216 111.972 131.272 112.092C131.328 112.204 131.356 112.268 131.356 112.284C130.924 112.284 130.6 112.196 130.384 112.02C130.176 111.836 130.072 111.536 130.072 111.12C130.072 110.608 130.28 110.112 130.696 109.632C131.12 109.144 131.66 108.752 132.316 108.456C132.972 108.152 133.628 108 134.284 108C134.396 108 134.556 108.008 134.764 108.024L133.984 111.696L135.22 110.04C136.204 108.712 136.7 108.052 136.708 108.06H137.968L134.632 111.9L135.052 111.888C135.596 111.888 135.98 112.004 136.204 112.236C136.428 112.46 136.54 112.772 136.54 113.172C136.54 113.404 136.512 113.652 136.456 113.916C136.4 114.172 136.32 114.492 136.216 114.876C136.152 115.124 136.092 115.368 136.036 115.608C135.98 115.848 135.952 116.048 135.952 116.208C135.952 116.392 135.992 116.556 136.072 116.7C136.16 116.844 136.276 116.944 136.42 117C135.932 117.136 135.536 117.204 135.232 117.204ZM139.211 110.352C138.947 110.352 138.723 110.26 138.539 110.076C138.355 109.892 138.263 109.668 138.263 109.404C138.263 109.14 138.355 108.916 138.539 108.732C138.723 108.54 138.947 108.444 139.211 108.444C139.475 108.444 139.699 108.54 139.883 108.732C140.075 108.916 140.171 109.14 140.171 109.404C140.171 109.668 140.075 109.892 139.883 110.076C139.699 110.26 139.475 110.352 139.211 110.352ZM138.395 117.072C138.011 117.072 137.699 116.952 137.459 116.712C137.227 116.472 137.111 116.112 137.111 115.632C137.111 115.432 137.143 115.172 137.207 114.852L138.023 111H139.751L138.887 115.08C138.855 115.2 138.839 115.328 138.839 115.464C138.839 115.624 138.875 115.74 138.947 115.812C139.027 115.876 139.155 115.908 139.331 115.908C139.563 115.908 139.779 115.812 139.979 115.62C140.179 115.42 140.323 115.164 140.411 114.852H140.915C140.619 115.716 140.239 116.304 139.775 116.616C139.311 116.92 138.851 117.072 138.395 117.072ZM141.594 117.072C141.21 117.072 140.898 116.952 140.658 116.712C140.426 116.472 140.31 116.112 140.31 115.632C140.31 115.432 140.342 115.172 140.406 114.852L141.126 111.48H140.73L140.826 111H141.222L141.582 109.344L143.358 109.104L142.95 111H143.67L143.574 111.48H142.854L142.086 115.08C142.054 115.2 142.038 115.328 142.038 115.464C142.038 115.624 142.074 115.74 142.146 115.812C142.226 115.876 142.354 115.908 142.53 115.908C142.762 115.908 142.978 115.812 143.178 115.62C143.378 115.42 143.522 115.164 143.61 114.852H144.114C143.818 115.716 143.438 116.304 142.974 116.616C142.51 116.92 142.05 117.072 141.594 117.072ZM145.321 117.072C144.729 117.072 144.269 116.92 143.941 116.616C143.613 116.304 143.449 115.82 143.449 115.164C143.449 114.612 143.557 114.004 143.773 113.34C143.997 112.676 144.349 112.104 144.829 111.624C145.317 111.136 145.933 110.892 146.677 110.892C147.157 110.892 147.497 110.996 147.697 111.204C147.905 111.412 148.009 111.676 148.009 111.996C148.009 112.276 147.949 112.492 147.829 112.644C147.709 112.796 147.557 112.872 147.373 112.872C147.237 112.872 147.097 112.824 146.953 112.728C147.049 112.464 147.097 112.228 147.097 112.02C147.097 111.868 147.069 111.748 147.013 111.66C146.957 111.572 146.873 111.528 146.761 111.528C146.521 111.528 146.281 111.724 146.041 112.116C145.801 112.508 145.605 112.984 145.453 113.544C145.301 114.104 145.225 114.608 145.225 115.056C145.225 115.448 145.293 115.716 145.429 115.86C145.565 115.996 145.785 116.064 146.089 116.064C146.521 116.064 146.889 115.964 147.193 115.764C147.505 115.564 147.845 115.26 148.213 114.852H148.621C147.733 116.332 146.633 117.072 145.321 117.072ZM152.543 117.072C152.055 117.072 151.695 116.944 151.463 116.688C151.239 116.424 151.127 116.1 151.127 115.716C151.127 115.548 151.147 115.36 151.187 115.152C151.227 114.936 151.267 114.728 151.307 114.528C151.355 114.328 151.387 114.2 151.403 114.144C151.467 113.864 151.527 113.588 151.583 113.316C151.639 113.044 151.667 112.824 151.667 112.656C151.667 112.248 151.523 112.044 151.235 112.044C151.027 112.044 150.843 112.148 150.683 112.356C150.523 112.556 150.395 112.82 150.299 113.148L149.483 117H147.755L149.495 108.84L151.271 108.6L150.623 111.624C151.023 111.176 151.491 110.952 152.027 110.952C152.435 110.952 152.759 111.064 152.999 111.288C153.239 111.512 153.359 111.852 153.359 112.308C153.359 112.54 153.331 112.8 153.275 113.088C153.219 113.368 153.139 113.712 153.035 114.12C152.971 114.368 152.911 114.612 152.855 114.852C152.807 115.084 152.783 115.268 152.783 115.404C152.783 115.564 152.819 115.688 152.891 115.776C152.963 115.864 153.087 115.908 153.263 115.908C153.503 115.908 153.695 115.824 153.839 115.656C153.983 115.48 154.127 115.212 154.271 114.852H154.775C154.479 115.732 154.135 116.324 153.743 116.628C153.359 116.924 152.959 117.072 152.543 117.072ZM155.986 117.072C155.394 117.072 154.934 116.92 154.606 116.616C154.278 116.304 154.114 115.82 154.114 115.164C154.114 114.612 154.222 114.004 154.438 113.34C154.654 112.676 155.006 112.104 155.494 111.624C155.982 111.136 156.602 110.892 157.354 110.892C158.234 110.892 158.674 111.276 158.674 112.044C158.674 112.492 158.546 112.904 158.29 113.28C158.034 113.656 157.694 113.96 157.27 114.192C156.846 114.416 156.394 114.544 155.914 114.576C155.898 114.816 155.89 114.976 155.89 115.056C155.89 115.448 155.958 115.716 156.094 115.86C156.23 115.996 156.45 116.064 156.754 116.064C157.186 116.064 157.554 115.964 157.858 115.764C158.17 115.564 158.51 115.26 158.878 114.852H159.286C158.398 116.332 157.298 117.072 155.986 117.072ZM156.01 114C156.306 113.984 156.586 113.88 156.85 113.688C157.122 113.496 157.338 113.252 157.498 112.956C157.666 112.66 157.75 112.348 157.75 112.02C157.75 111.692 157.65 111.528 157.45 111.528C157.162 111.528 156.878 111.78 156.598 112.284C156.326 112.788 156.13 113.36 156.01 114ZM163.003 117.072C162.579 117.072 162.271 116.944 162.079 116.688C161.887 116.432 161.791 116.108 161.791 115.716C161.791 115.548 161.811 115.36 161.851 115.152C161.891 114.936 161.931 114.728 161.971 114.528C162.019 114.328 162.051 114.2 162.067 114.144C162.131 113.864 162.191 113.588 162.247 113.316C162.303 113.044 162.331 112.824 162.331 112.656C162.331 112.248 162.187 112.044 161.899 112.044C161.691 112.044 161.507 112.148 161.347 112.356C161.187 112.556 161.059 112.82 160.963 113.148L160.147 117H158.419L159.691 111H161.419L161.287 111.624C161.687 111.176 162.155 110.952 162.691 110.952C163.099 110.952 163.423 111.064 163.663 111.288C163.903 111.512 164.023 111.852 164.023 112.308C164.023 112.54 163.995 112.8 163.939 113.088C163.883 113.368 163.803 113.712 163.699 114.12C163.635 114.368 163.575 114.612 163.519 114.852C163.471 115.084 163.447 115.268 163.447 115.404C163.447 115.564 163.483 115.688 163.555 115.776C163.627 115.864 163.751 115.908 163.927 115.908C164.119 115.908 164.251 115.884 164.323 115.836C164.275 116.244 164.127 116.552 163.879 116.76C163.639 116.968 163.347 117.072 163.003 117.072ZM166.94 118.368C166.644 118.368 166.384 118.344 166.16 118.296C165.936 118.248 165.74 118.132 165.572 117.948C165.412 117.764 165.332 117.48 165.332 117.096C165.332 116.56 165.492 115.84 165.812 114.936C166.14 114.032 166.568 113.124 167.096 112.212C166.696 112.236 166.38 112.296 166.148 112.392C165.916 112.488 165.764 112.636 165.692 112.836C165.724 112.836 165.756 112.876 165.788 112.956C165.828 113.036 165.848 113.12 165.848 113.208C165.848 113.352 165.784 113.468 165.656 113.556C165.528 113.636 165.368 113.676 165.176 113.676C164.952 113.676 164.772 113.616 164.636 113.496C164.5 113.376 164.432 113.204 164.432 112.98C164.432 112.708 164.536 112.46 164.744 112.236C164.96 112.012 165.256 111.836 165.632 111.708C166.008 111.572 166.424 111.504 166.88 111.504C167.048 111.504 167.256 111.516 167.504 111.54C168.16 110.5 168.852 109.652 169.58 108.996C170.316 108.332 171.016 108 171.68 108C172.064 108 172.38 108.056 172.628 108.168L170.744 117H169.016L169.94 112.644C169.644 112.508 169.372 112.408 169.124 112.344C168.876 112.28 168.612 112.236 168.332 112.212C167.876 113.196 167.5 114.204 167.204 115.236C166.916 116.26 166.772 117.08 166.772 117.696C166.772 118 166.828 118.224 166.94 118.368ZM170.744 108.852C170.4 109.036 170.04 109.38 169.664 109.884C169.296 110.38 168.936 110.984 168.584 111.696C169.16 111.808 169.648 111.948 170.048 112.116L170.744 108.852ZM173.252 110.556H174.98L174.788 111.456C175.188 111.112 175.656 110.94 176.192 110.94C176.64 110.94 176.996 111.088 177.26 111.384C177.524 111.68 177.656 112.164 177.656 112.836C177.656 113.468 177.564 114.108 177.38 114.756C177.196 115.396 176.884 115.944 176.444 116.4C176.004 116.848 175.424 117.072 174.704 117.072C174.192 117.072 173.852 116.928 173.684 116.64L173.06 119.568L171.248 120L173.252 110.556ZM174.332 116.028C174.716 116.028 175.032 115.848 175.28 115.488C175.536 115.128 175.72 114.7 175.832 114.204C175.952 113.7 176.012 113.232 176.012 112.8C176.012 112.136 175.812 111.804 175.412 111.804C175.268 111.804 175.12 111.856 174.968 111.96C174.824 112.064 174.696 112.208 174.584 112.392L173.876 115.752C173.94 115.936 174.092 116.028 174.332 116.028ZM178.865 110.556H180.593L180.401 111.456C180.801 111.112 181.269 110.94 181.805 110.94C182.253 110.94 182.609 111.088 182.873 111.384C183.137 111.68 183.269 112.164 183.269 112.836C183.269 113.468 183.177 114.108 182.993 114.756C182.809 115.396 182.497 115.944 182.057 116.4C181.617 116.848 181.037 117.072 180.317 117.072C179.805 117.072 179.465 116.928 179.297 116.64L178.673 119.568L176.861 120L178.865 110.556ZM179.945 116.028C180.329 116.028 180.645 115.848 180.893 115.488C181.149 115.128 181.333 114.7 181.445 114.204C181.565 113.7 181.625 113.232 181.625 112.8C181.625 112.136 181.425 111.804 181.025 111.804C180.881 111.804 180.733 111.856 180.581 111.96C180.437 112.064 180.309 112.208 180.197 112.392L179.489 115.752C179.553 115.936 179.705 116.028 179.945 116.028Z" fill="white"/>
<defs>
<filter id="filter0_f" x="124.295" y="152.317" width="13.2273" height="8.88808" filterUnits="userSpaceOnUse" color-interpolation-filters="sRGB">
<feFlood flood-opacity="0" result="BackgroundImageFix"/>
<feBlend mode="normal" in="SourceGraphic" in2="BackgroundImageFix" result="shape"/>
<feGaussianBlur stdDeviation="0.5" result="effect1_foregroundBlur"/>
</filter>
<filter id="filter1_f" x="162.795" y="123.83" width="30.4066" height="41.2663" filterUnits="userSpaceOnUse" color-interpolation-filters="sRGB">
<feFlood flood-opacity="0" result="BackgroundImageFix"/>
<feBlend mode="normal" in="SourceGraphic" in2="BackgroundImageFix" result="shape"/>
<feGaussianBlur stdDeviation="0.5" result="effect1_foregroundBlur"/>
</filter>
</defs>
</svg>
